<mxfile host="Electron" modified="2025-04-23T14:29:53.687Z" agent="Mozilla/5.0 (X11; Linux x86_64) AppleWebKit/537.36 (KHTML, like Gecko) draw.io/21.5.1 Chrome/112.0.5615.204 Electron/24.6.0 Safari/537.36" etag="aYnfOxDRvCPkVqohqONh" version="21.5.1" type="device">
  <diagram name="Page-1" id="_ZZkdFTt_AlzRNuIuWJz">
    <mxGraphModel dx="1904" dy="563" grid="1" gridSize="10" guides="1" tooltips="1" connect="1" arrows="1" fold="1" page="1" pageScale="1" pageWidth="1" pageHeight="20" math="0" shadow="0">
      <root>
        <mxCell id="0" />
        <mxCell id="1" parent="0" />
        <mxCell id="yUBB0VeemBzhYDd7t7RH-1" value="" style="rounded=1;whiteSpace=wrap;html=1;" vertex="1" parent="1">
          <mxGeometry x="-560" y="170" width="90" height="10" as="geometry" />
        </mxCell>
        <mxCell id="yUBB0VeemBzhYDd7t7RH-2" value="" style="rounded=1;whiteSpace=wrap;html=1;" vertex="1" parent="1">
          <mxGeometry x="-467" y="170" width="90" height="10" as="geometry" />
        </mxCell>
        <mxCell id="yUBB0VeemBzhYDd7t7RH-3" value="" style="rounded=1;whiteSpace=wrap;html=1;" vertex="1" parent="1">
          <mxGeometry x="-374" y="170" width="90" height="10" as="geometry" />
        </mxCell>
        <mxCell id="yUBB0VeemBzhYDd7t7RH-4" value="" style="rounded=1;whiteSpace=wrap;html=1;" vertex="1" parent="1">
          <mxGeometry x="-652" y="170" width="90" height="10" as="geometry" />
        </mxCell>
        <mxCell id="yUBB0VeemBzhYDd7t7RH-5" value="" style="rounded=1;whiteSpace=wrap;html=1;" vertex="1" parent="1">
          <mxGeometry x="-189" y="170" width="90" height="10" as="geometry" />
        </mxCell>
        <mxCell id="yUBB0VeemBzhYDd7t7RH-6" value="" style="rounded=1;whiteSpace=wrap;html=1;" vertex="1" parent="1">
          <mxGeometry x="-96" y="170" width="90" height="10" as="geometry" />
        </mxCell>
        <mxCell id="yUBB0VeemBzhYDd7t7RH-7" value="" style="rounded=1;whiteSpace=wrap;html=1;" vertex="1" parent="1">
          <mxGeometry x="-3" y="170" width="90" height="10" as="geometry" />
        </mxCell>
        <mxCell id="yUBB0VeemBzhYDd7t7RH-8" value="" style="rounded=1;whiteSpace=wrap;html=1;" vertex="1" parent="1">
          <mxGeometry x="-281" y="170" width="90" height="10" as="geometry" />
        </mxCell>
        <mxCell id="yUBB0VeemBzhYDd7t7RH-9" value="" style="rounded=1;whiteSpace=wrap;html=1;" vertex="1" parent="1">
          <mxGeometry x="-559" y="185" width="90" height="10" as="geometry" />
        </mxCell>
        <mxCell id="yUBB0VeemBzhYDd7t7RH-10" value="" style="rounded=1;whiteSpace=wrap;html=1;" vertex="1" parent="1">
          <mxGeometry x="-466" y="185" width="90" height="10" as="geometry" />
        </mxCell>
        <mxCell id="yUBB0VeemBzhYDd7t7RH-11" value="" style="rounded=1;whiteSpace=wrap;html=1;" vertex="1" parent="1">
          <mxGeometry x="-373" y="185" width="90" height="10" as="geometry" />
        </mxCell>
        <mxCell id="yUBB0VeemBzhYDd7t7RH-12" value="" style="rounded=1;whiteSpace=wrap;html=1;" vertex="1" parent="1">
          <mxGeometry x="-651" y="185" width="90" height="10" as="geometry" />
        </mxCell>
        <mxCell id="yUBB0VeemBzhYDd7t7RH-13" value="" style="rounded=1;whiteSpace=wrap;html=1;" vertex="1" parent="1">
          <mxGeometry x="-188" y="185" width="90" height="10" as="geometry" />
        </mxCell>
        <mxCell id="yUBB0VeemBzhYDd7t7RH-14" value="" style="rounded=1;whiteSpace=wrap;html=1;" vertex="1" parent="1">
          <mxGeometry x="-95" y="185" width="90" height="10" as="geometry" />
        </mxCell>
        <mxCell id="yUBB0VeemBzhYDd7t7RH-15" value="" style="rounded=1;whiteSpace=wrap;html=1;" vertex="1" parent="1">
          <mxGeometry x="-2" y="185" width="90" height="10" as="geometry" />
        </mxCell>
        <mxCell id="yUBB0VeemBzhYDd7t7RH-16" value="" style="rounded=1;whiteSpace=wrap;html=1;" vertex="1" parent="1">
          <mxGeometry x="-280" y="185" width="90" height="10" as="geometry" />
        </mxCell>
        <mxCell id="yUBB0VeemBzhYDd7t7RH-17" value="" style="rounded=1;whiteSpace=wrap;html=1;" vertex="1" parent="1">
          <mxGeometry x="-559" y="200" width="90" height="10" as="geometry" />
        </mxCell>
        <mxCell id="yUBB0VeemBzhYDd7t7RH-18" value="" style="rounded=1;whiteSpace=wrap;html=1;" vertex="1" parent="1">
          <mxGeometry x="-466" y="200" width="90" height="10" as="geometry" />
        </mxCell>
        <mxCell id="yUBB0VeemBzhYDd7t7RH-19" value="" style="rounded=1;whiteSpace=wrap;html=1;" vertex="1" parent="1">
          <mxGeometry x="-373" y="200" width="90" height="10" as="geometry" />
        </mxCell>
        <mxCell id="yUBB0VeemBzhYDd7t7RH-20" value="" style="rounded=1;whiteSpace=wrap;html=1;" vertex="1" parent="1">
          <mxGeometry x="-651" y="200" width="90" height="10" as="geometry" />
        </mxCell>
        <mxCell id="yUBB0VeemBzhYDd7t7RH-21" value="" style="rounded=1;whiteSpace=wrap;html=1;" vertex="1" parent="1">
          <mxGeometry x="-188" y="200" width="90" height="10" as="geometry" />
        </mxCell>
        <mxCell id="yUBB0VeemBzhYDd7t7RH-22" value="" style="rounded=1;whiteSpace=wrap;html=1;" vertex="1" parent="1">
          <mxGeometry x="-95" y="200" width="90" height="10" as="geometry" />
        </mxCell>
        <mxCell id="yUBB0VeemBzhYDd7t7RH-23" value="" style="rounded=1;whiteSpace=wrap;html=1;" vertex="1" parent="1">
          <mxGeometry x="-2" y="200" width="90" height="10" as="geometry" />
        </mxCell>
        <mxCell id="yUBB0VeemBzhYDd7t7RH-24" value="" style="rounded=1;whiteSpace=wrap;html=1;" vertex="1" parent="1">
          <mxGeometry x="-280" y="200" width="90" height="10" as="geometry" />
        </mxCell>
        <mxCell id="yUBB0VeemBzhYDd7t7RH-25" value="" style="rounded=1;whiteSpace=wrap;html=1;" vertex="1" parent="1">
          <mxGeometry x="-559" y="230" width="90" height="10" as="geometry" />
        </mxCell>
        <mxCell id="yUBB0VeemBzhYDd7t7RH-26" value="" style="rounded=1;whiteSpace=wrap;html=1;" vertex="1" parent="1">
          <mxGeometry x="-466" y="230" width="90" height="10" as="geometry" />
        </mxCell>
        <mxCell id="yUBB0VeemBzhYDd7t7RH-27" value="" style="rounded=1;whiteSpace=wrap;html=1;" vertex="1" parent="1">
          <mxGeometry x="-373" y="230" width="90" height="10" as="geometry" />
        </mxCell>
        <mxCell id="yUBB0VeemBzhYDd7t7RH-28" value="" style="rounded=1;whiteSpace=wrap;html=1;" vertex="1" parent="1">
          <mxGeometry x="-651" y="230" width="90" height="10" as="geometry" />
        </mxCell>
        <mxCell id="yUBB0VeemBzhYDd7t7RH-29" value="" style="rounded=1;whiteSpace=wrap;html=1;" vertex="1" parent="1">
          <mxGeometry x="-188" y="230" width="90" height="10" as="geometry" />
        </mxCell>
        <mxCell id="yUBB0VeemBzhYDd7t7RH-30" value="" style="rounded=1;whiteSpace=wrap;html=1;" vertex="1" parent="1">
          <mxGeometry x="-95" y="230" width="90" height="10" as="geometry" />
        </mxCell>
        <mxCell id="yUBB0VeemBzhYDd7t7RH-31" value="" style="rounded=1;whiteSpace=wrap;html=1;" vertex="1" parent="1">
          <mxGeometry x="-2" y="230" width="90" height="10" as="geometry" />
        </mxCell>
        <mxCell id="yUBB0VeemBzhYDd7t7RH-32" value="" style="rounded=1;whiteSpace=wrap;html=1;" vertex="1" parent="1">
          <mxGeometry x="-280" y="230" width="90" height="10" as="geometry" />
        </mxCell>
        <mxCell id="yUBB0VeemBzhYDd7t7RH-33" value="..." style="text;html=1;align=center;verticalAlign=middle;resizable=0;points=[];autosize=1;strokeColor=none;fillColor=none;rotation=90;" vertex="1" parent="1">
          <mxGeometry x="-619" y="205" width="30" height="30" as="geometry" />
        </mxCell>
        <mxCell id="yUBB0VeemBzhYDd7t7RH-34" value="..." style="text;html=1;align=center;verticalAlign=middle;resizable=0;points=[];autosize=1;strokeColor=none;fillColor=none;rotation=90;" vertex="1" parent="1">
          <mxGeometry x="-527" y="205" width="30" height="30" as="geometry" />
        </mxCell>
        <mxCell id="yUBB0VeemBzhYDd7t7RH-35" value="..." style="text;html=1;align=center;verticalAlign=middle;resizable=0;points=[];autosize=1;strokeColor=none;fillColor=none;rotation=90;" vertex="1" parent="1">
          <mxGeometry x="-436" y="205" width="30" height="30" as="geometry" />
        </mxCell>
        <mxCell id="yUBB0VeemBzhYDd7t7RH-36" value="..." style="text;html=1;align=center;verticalAlign=middle;resizable=0;points=[];autosize=1;strokeColor=none;fillColor=none;rotation=90;" vertex="1" parent="1">
          <mxGeometry x="-344" y="205" width="30" height="30" as="geometry" />
        </mxCell>
        <mxCell id="yUBB0VeemBzhYDd7t7RH-37" value="..." style="text;html=1;align=center;verticalAlign=middle;resizable=0;points=[];autosize=1;strokeColor=none;fillColor=none;rotation=90;" vertex="1" parent="1">
          <mxGeometry x="-251" y="205" width="30" height="30" as="geometry" />
        </mxCell>
        <mxCell id="yUBB0VeemBzhYDd7t7RH-38" value="..." style="text;html=1;align=center;verticalAlign=middle;resizable=0;points=[];autosize=1;strokeColor=none;fillColor=none;rotation=90;" vertex="1" parent="1">
          <mxGeometry x="-159" y="205" width="30" height="30" as="geometry" />
        </mxCell>
        <mxCell id="yUBB0VeemBzhYDd7t7RH-39" value="..." style="text;html=1;align=center;verticalAlign=middle;resizable=0;points=[];autosize=1;strokeColor=none;fillColor=none;rotation=90;" vertex="1" parent="1">
          <mxGeometry x="-64" y="205" width="30" height="30" as="geometry" />
        </mxCell>
        <mxCell id="yUBB0VeemBzhYDd7t7RH-40" value="..." style="text;html=1;align=center;verticalAlign=middle;resizable=0;points=[];autosize=1;strokeColor=none;fillColor=none;rotation=90;" vertex="1" parent="1">
          <mxGeometry x="28" y="205" width="30" height="30" as="geometry" />
        </mxCell>
        <mxCell id="yUBB0VeemBzhYDd7t7RH-41" value="set 1" style="text;html=1;align=center;verticalAlign=middle;resizable=0;points=[];autosize=1;strokeColor=none;fillColor=none;" vertex="1" parent="1">
          <mxGeometry x="-635" y="140" width="50" height="30" as="geometry" />
        </mxCell>
        <mxCell id="yUBB0VeemBzhYDd7t7RH-42" value="set 2" style="text;html=1;align=center;verticalAlign=middle;resizable=0;points=[];autosize=1;strokeColor=none;fillColor=none;" vertex="1" parent="1">
          <mxGeometry x="-541" y="140" width="50" height="30" as="geometry" />
        </mxCell>
        <mxCell id="yUBB0VeemBzhYDd7t7RH-43" value="set 3" style="text;html=1;align=center;verticalAlign=middle;resizable=0;points=[];autosize=1;strokeColor=none;fillColor=none;" vertex="1" parent="1">
          <mxGeometry x="-448" y="140" width="50" height="30" as="geometry" />
        </mxCell>
        <mxCell id="yUBB0VeemBzhYDd7t7RH-44" value="set 4" style="text;html=1;align=center;verticalAlign=middle;resizable=0;points=[];autosize=1;strokeColor=none;fillColor=none;" vertex="1" parent="1">
          <mxGeometry x="-356" y="140" width="50" height="30" as="geometry" />
        </mxCell>
        <mxCell id="yUBB0VeemBzhYDd7t7RH-45" value="set 5" style="text;html=1;align=center;verticalAlign=middle;resizable=0;points=[];autosize=1;strokeColor=none;fillColor=none;" vertex="1" parent="1">
          <mxGeometry x="-261" y="140" width="50" height="30" as="geometry" />
        </mxCell>
        <mxCell id="yUBB0VeemBzhYDd7t7RH-46" value="set 6" style="text;html=1;align=center;verticalAlign=middle;resizable=0;points=[];autosize=1;strokeColor=none;fillColor=none;" vertex="1" parent="1">
          <mxGeometry x="-172" y="140" width="50" height="30" as="geometry" />
        </mxCell>
        <mxCell id="yUBB0VeemBzhYDd7t7RH-47" value="set 7" style="text;html=1;align=center;verticalAlign=middle;resizable=0;points=[];autosize=1;strokeColor=none;fillColor=none;" vertex="1" parent="1">
          <mxGeometry x="-79" y="140" width="50" height="30" as="geometry" />
        </mxCell>
        <mxCell id="yUBB0VeemBzhYDd7t7RH-48" value="set 8" style="text;html=1;align=center;verticalAlign=middle;resizable=0;points=[];autosize=1;strokeColor=none;fillColor=none;" vertex="1" parent="1">
          <mxGeometry x="18" y="140" width="50" height="30" as="geometry" />
        </mxCell>
        <mxCell id="yUBB0VeemBzhYDd7t7RH-51" value="" style="group" vertex="1" connectable="0" parent="1">
          <mxGeometry x="-652" y="240" width="92" height="30" as="geometry" />
        </mxCell>
        <mxCell id="yUBB0VeemBzhYDd7t7RH-49" value="" style="endArrow=classicThin;startArrow=classicThin;html=1;rounded=0;startFill=1;endFill=1;" edge="1" parent="yUBB0VeemBzhYDd7t7RH-51">
          <mxGeometry width="50" height="50" relative="1" as="geometry">
            <mxPoint y="7" as="sourcePoint" />
            <mxPoint x="92" y="7" as="targetPoint" />
          </mxGeometry>
        </mxCell>
        <mxCell id="yUBB0VeemBzhYDd7t7RH-50" value="128B" style="text;html=1;align=center;verticalAlign=middle;resizable=0;points=[];autosize=1;strokeColor=none;fillColor=none;" vertex="1" parent="yUBB0VeemBzhYDd7t7RH-51">
          <mxGeometry x="21" width="50" height="30" as="geometry" />
        </mxCell>
        <mxCell id="yUBB0VeemBzhYDd7t7RH-52" value="" style="group" vertex="1" connectable="0" parent="1">
          <mxGeometry x="-558" y="240" width="92" height="30" as="geometry" />
        </mxCell>
        <mxCell id="yUBB0VeemBzhYDd7t7RH-53" value="" style="endArrow=classicThin;startArrow=classicThin;html=1;rounded=0;startFill=1;endFill=1;" edge="1" parent="yUBB0VeemBzhYDd7t7RH-52">
          <mxGeometry width="50" height="50" relative="1" as="geometry">
            <mxPoint y="7" as="sourcePoint" />
            <mxPoint x="92" y="7" as="targetPoint" />
          </mxGeometry>
        </mxCell>
        <mxCell id="yUBB0VeemBzhYDd7t7RH-54" value="128B" style="text;html=1;align=center;verticalAlign=middle;resizable=0;points=[];autosize=1;strokeColor=none;fillColor=none;" vertex="1" parent="yUBB0VeemBzhYDd7t7RH-52">
          <mxGeometry x="21" width="50" height="30" as="geometry" />
        </mxCell>
        <mxCell id="yUBB0VeemBzhYDd7t7RH-55" value="" style="group" vertex="1" connectable="0" parent="1">
          <mxGeometry x="-464" y="240" width="92" height="30" as="geometry" />
        </mxCell>
        <mxCell id="yUBB0VeemBzhYDd7t7RH-56" value="" style="endArrow=classicThin;startArrow=classicThin;html=1;rounded=0;startFill=1;endFill=1;" edge="1" parent="yUBB0VeemBzhYDd7t7RH-55">
          <mxGeometry width="50" height="50" relative="1" as="geometry">
            <mxPoint y="7" as="sourcePoint" />
            <mxPoint x="92" y="7" as="targetPoint" />
          </mxGeometry>
        </mxCell>
        <mxCell id="yUBB0VeemBzhYDd7t7RH-57" value="128B" style="text;html=1;align=center;verticalAlign=middle;resizable=0;points=[];autosize=1;strokeColor=none;fillColor=none;" vertex="1" parent="yUBB0VeemBzhYDd7t7RH-55">
          <mxGeometry x="21" width="50" height="30" as="geometry" />
        </mxCell>
        <mxCell id="yUBB0VeemBzhYDd7t7RH-58" value="" style="group" vertex="1" connectable="0" parent="1">
          <mxGeometry x="-373" y="240" width="92" height="30" as="geometry" />
        </mxCell>
        <mxCell id="yUBB0VeemBzhYDd7t7RH-59" value="" style="endArrow=classicThin;startArrow=classicThin;html=1;rounded=0;startFill=1;endFill=1;" edge="1" parent="yUBB0VeemBzhYDd7t7RH-58">
          <mxGeometry width="50" height="50" relative="1" as="geometry">
            <mxPoint y="7" as="sourcePoint" />
            <mxPoint x="92" y="7" as="targetPoint" />
          </mxGeometry>
        </mxCell>
        <mxCell id="yUBB0VeemBzhYDd7t7RH-60" value="128B" style="text;html=1;align=center;verticalAlign=middle;resizable=0;points=[];autosize=1;strokeColor=none;fillColor=none;" vertex="1" parent="yUBB0VeemBzhYDd7t7RH-58">
          <mxGeometry x="21" width="50" height="30" as="geometry" />
        </mxCell>
        <mxCell id="yUBB0VeemBzhYDd7t7RH-61" value="" style="group" vertex="1" connectable="0" parent="1">
          <mxGeometry x="-280" y="240" width="92" height="30" as="geometry" />
        </mxCell>
        <mxCell id="yUBB0VeemBzhYDd7t7RH-62" value="" style="endArrow=classicThin;startArrow=classicThin;html=1;rounded=0;startFill=1;endFill=1;" edge="1" parent="yUBB0VeemBzhYDd7t7RH-61">
          <mxGeometry width="50" height="50" relative="1" as="geometry">
            <mxPoint y="7" as="sourcePoint" />
            <mxPoint x="92" y="7" as="targetPoint" />
          </mxGeometry>
        </mxCell>
        <mxCell id="yUBB0VeemBzhYDd7t7RH-63" value="128B" style="text;html=1;align=center;verticalAlign=middle;resizable=0;points=[];autosize=1;strokeColor=none;fillColor=none;" vertex="1" parent="yUBB0VeemBzhYDd7t7RH-61">
          <mxGeometry x="21" width="50" height="30" as="geometry" />
        </mxCell>
        <mxCell id="yUBB0VeemBzhYDd7t7RH-64" value="" style="group" vertex="1" connectable="0" parent="1">
          <mxGeometry x="-188" y="240" width="92" height="30" as="geometry" />
        </mxCell>
        <mxCell id="yUBB0VeemBzhYDd7t7RH-65" value="" style="endArrow=classicThin;startArrow=classicThin;html=1;rounded=0;startFill=1;endFill=1;" edge="1" parent="yUBB0VeemBzhYDd7t7RH-64">
          <mxGeometry width="50" height="50" relative="1" as="geometry">
            <mxPoint y="7" as="sourcePoint" />
            <mxPoint x="92" y="7" as="targetPoint" />
          </mxGeometry>
        </mxCell>
        <mxCell id="yUBB0VeemBzhYDd7t7RH-66" value="128B" style="text;html=1;align=center;verticalAlign=middle;resizable=0;points=[];autosize=1;strokeColor=none;fillColor=none;" vertex="1" parent="yUBB0VeemBzhYDd7t7RH-64">
          <mxGeometry x="21" width="50" height="30" as="geometry" />
        </mxCell>
        <mxCell id="yUBB0VeemBzhYDd7t7RH-67" value="" style="group" vertex="1" connectable="0" parent="1">
          <mxGeometry x="-95" y="240" width="92" height="30" as="geometry" />
        </mxCell>
        <mxCell id="yUBB0VeemBzhYDd7t7RH-68" value="" style="endArrow=classicThin;startArrow=classicThin;html=1;rounded=0;startFill=1;endFill=1;" edge="1" parent="yUBB0VeemBzhYDd7t7RH-67">
          <mxGeometry width="50" height="50" relative="1" as="geometry">
            <mxPoint y="7" as="sourcePoint" />
            <mxPoint x="92" y="7" as="targetPoint" />
          </mxGeometry>
        </mxCell>
        <mxCell id="yUBB0VeemBzhYDd7t7RH-69" value="128B" style="text;html=1;align=center;verticalAlign=middle;resizable=0;points=[];autosize=1;strokeColor=none;fillColor=none;" vertex="1" parent="yUBB0VeemBzhYDd7t7RH-67">
          <mxGeometry x="21" width="50" height="30" as="geometry" />
        </mxCell>
        <mxCell id="yUBB0VeemBzhYDd7t7RH-70" value="" style="group" vertex="1" connectable="0" parent="1">
          <mxGeometry x="-1" y="240" width="92" height="30" as="geometry" />
        </mxCell>
        <mxCell id="yUBB0VeemBzhYDd7t7RH-71" value="" style="endArrow=classicThin;startArrow=classicThin;html=1;rounded=0;startFill=1;endFill=1;" edge="1" parent="yUBB0VeemBzhYDd7t7RH-70">
          <mxGeometry width="50" height="50" relative="1" as="geometry">
            <mxPoint y="7" as="sourcePoint" />
            <mxPoint x="92" y="7" as="targetPoint" />
          </mxGeometry>
        </mxCell>
        <mxCell id="yUBB0VeemBzhYDd7t7RH-72" value="128B" style="text;html=1;align=center;verticalAlign=middle;resizable=0;points=[];autosize=1;strokeColor=none;fillColor=none;" vertex="1" parent="yUBB0VeemBzhYDd7t7RH-70">
          <mxGeometry x="21" width="50" height="30" as="geometry" />
        </mxCell>
        <mxCell id="yUBB0VeemBzhYDd7t7RH-75" value="" style="group" vertex="1" connectable="0" parent="1">
          <mxGeometry x="-743" y="160" width="92" height="30" as="geometry" />
        </mxCell>
        <mxCell id="yUBB0VeemBzhYDd7t7RH-73" value="" style="endArrow=classic;html=1;rounded=0;" edge="1" parent="yUBB0VeemBzhYDd7t7RH-75">
          <mxGeometry width="50" height="50" relative="1" as="geometry">
            <mxPoint y="17" as="sourcePoint" />
            <mxPoint x="40" y="17" as="targetPoint" />
          </mxGeometry>
        </mxCell>
        <mxCell id="yUBB0VeemBzhYDd7t7RH-74" value="assoc 1" style="text;html=1;align=center;verticalAlign=middle;resizable=0;points=[];autosize=1;strokeColor=none;fillColor=none;" vertex="1" parent="yUBB0VeemBzhYDd7t7RH-75">
          <mxGeometry x="32" width="60" height="30" as="geometry" />
        </mxCell>
        <mxCell id="yUBB0VeemBzhYDd7t7RH-76" value="" style="group" vertex="1" connectable="0" parent="1">
          <mxGeometry x="-742" y="175" width="92" height="30" as="geometry" />
        </mxCell>
        <mxCell id="yUBB0VeemBzhYDd7t7RH-77" value="" style="endArrow=classic;html=1;rounded=0;" edge="1" parent="yUBB0VeemBzhYDd7t7RH-76">
          <mxGeometry width="50" height="50" relative="1" as="geometry">
            <mxPoint y="17" as="sourcePoint" />
            <mxPoint x="40" y="17" as="targetPoint" />
          </mxGeometry>
        </mxCell>
        <mxCell id="yUBB0VeemBzhYDd7t7RH-78" value="assoc 2" style="text;html=1;align=center;verticalAlign=middle;resizable=0;points=[];autosize=1;strokeColor=none;fillColor=none;" vertex="1" parent="yUBB0VeemBzhYDd7t7RH-76">
          <mxGeometry x="32" width="60" height="30" as="geometry" />
        </mxCell>
        <mxCell id="yUBB0VeemBzhYDd7t7RH-79" value="" style="group" vertex="1" connectable="0" parent="1">
          <mxGeometry x="-742" y="190" width="92" height="30" as="geometry" />
        </mxCell>
        <mxCell id="yUBB0VeemBzhYDd7t7RH-80" value="" style="endArrow=classic;html=1;rounded=0;" edge="1" parent="yUBB0VeemBzhYDd7t7RH-79">
          <mxGeometry width="50" height="50" relative="1" as="geometry">
            <mxPoint y="17" as="sourcePoint" />
            <mxPoint x="40" y="17" as="targetPoint" />
          </mxGeometry>
        </mxCell>
        <mxCell id="yUBB0VeemBzhYDd7t7RH-81" value="assoc 3" style="text;html=1;align=center;verticalAlign=middle;resizable=0;points=[];autosize=1;strokeColor=none;fillColor=none;" vertex="1" parent="yUBB0VeemBzhYDd7t7RH-79">
          <mxGeometry x="32" width="60" height="30" as="geometry" />
        </mxCell>
        <mxCell id="yUBB0VeemBzhYDd7t7RH-82" value="" style="group" vertex="1" connectable="0" parent="1">
          <mxGeometry x="-757" y="220" width="102" height="30" as="geometry" />
        </mxCell>
        <mxCell id="yUBB0VeemBzhYDd7t7RH-83" value="" style="endArrow=classic;html=1;rounded=0;" edge="1" parent="yUBB0VeemBzhYDd7t7RH-82">
          <mxGeometry width="50" height="50" relative="1" as="geometry">
            <mxPoint x="5" y="16" as="sourcePoint" />
            <mxPoint x="45" y="16" as="targetPoint" />
          </mxGeometry>
        </mxCell>
        <mxCell id="yUBB0VeemBzhYDd7t7RH-84" value="assoc 128" style="text;html=1;align=center;verticalAlign=middle;resizable=0;points=[];autosize=1;strokeColor=none;fillColor=none;" vertex="1" parent="yUBB0VeemBzhYDd7t7RH-82">
          <mxGeometry x="34" width="80" height="30" as="geometry" />
        </mxCell>
      </root>
    </mxGraphModel>
  </diagram>
</mxfile>
